<svg width="113" height="52" viewBox="0 0 113 52" fill="none" xmlns="http://www.w3.org/2000/svg">
<g clip-path="url(#clip0)">
<path d="M30.5124 0C30.5719 0.0891429 30.6612 0.178286 30.691 0.267429C32.2985 4.42743 34.0548 8.46857 36.1088 12.4206C38.133 16.3131 40.3656 20.0869 42.8066 23.712C43.9676 25.4354 45.1583 27.1589 46.3193 28.8526C46.3788 28.9714 46.4681 29.0606 46.5574 29.1794C46.2002 29.3577 45.8727 29.5063 45.5155 29.6549C45.4262 29.6846 45.3369 29.6846 45.2476 29.7143C43.4318 30.5166 41.5861 31.2891 39.7703 32.1509C38.4009 32.8046 37.0316 33.488 35.7218 34.2309C33.638 35.4194 31.5543 36.6377 29.5003 37.9154C27.0295 39.4606 24.648 41.1246 22.3559 42.9371C21.314 43.7691 20.2721 44.5714 19.2302 45.4331C18.3372 46.176 17.4739 46.8891 16.5809 47.6617C15.9557 48.2263 15.3306 48.7909 14.7352 49.3851C14.5269 49.5634 14.3185 49.7714 14.0803 49.9497C13.991 50.0091 13.9017 50.0686 13.7827 50.128C13.8124 49.9794 13.8422 49.8309 13.872 49.6823C14.6459 47.3943 15.4199 45.136 16.2236 42.848C17.5037 41.9566 18.7539 41.0651 20.034 40.2034C26.6425 35.776 33.4892 31.7943 40.574 28.1394C40.8419 27.9909 41.1396 27.8423 41.4075 27.6937C41.348 27.5749 41.3182 27.4857 41.2587 27.3966C39.4428 24.2766 37.5972 21.1863 35.7813 18.0366C33.8762 14.7086 32.0008 11.3806 30.0956 8.02286C29.6789 7.30971 29.3216 6.56686 28.9049 5.824C28.9347 5.76457 28.9644 5.70514 28.9644 5.64571C29.2919 4.42743 29.5896 3.23886 29.8872 2.02057C30.0658 1.33714 30.2147 0.653714 30.3933 0C30.4826 0.0594286 30.4826 0.0297143 30.5124 0Z" fill="#4BB7C9"></path>
<path d="M16.2534 42.848C15.4795 45.136 14.6757 47.3943 13.9017 49.6823C13.8422 49.8309 13.8422 49.9795 13.8124 50.128C13.7827 50.1875 13.7529 50.2172 13.7231 50.2766C13.5743 49.6823 13.4254 49.088 13.2766 48.4937C12.2347 44.0366 10.8654 39.6983 9.28767 35.4194C7.26344 29.9223 4.88198 24.5737 2.35169 19.3143C1.63725 17.8286 0.922814 16.3429 0.178609 14.8572C0.119073 14.7383 0.0595364 14.6194 0 14.4709C0.119073 14.4114 0.238145 14.3817 0.357218 14.3223C4.64384 12.8069 8.96022 11.3212 13.2468 9.74631C17.0572 8.32002 20.7782 6.62631 24.2908 4.51659C26.4044 3.23888 28.3691 1.84231 30.2445 0.20802C30.304 0.148591 30.3933 0.118877 30.4826 0.0594482C30.304 0.742877 30.1552 1.42631 29.9766 2.08002C29.6789 3.29831 29.3514 4.48688 29.0537 5.70516C29.0537 5.76459 29.024 5.82402 28.9942 5.88345C28.9644 5.91316 28.9049 5.91316 28.8751 5.94288C24.7969 8.14173 20.54 9.89488 16.1939 11.5292C12.5622 12.8663 8.93045 14.2034 5.29874 15.5703C4.88198 15.7189 4.46523 15.8972 4.0187 16.0754C4.07824 16.224 4.13778 16.3132 4.16754 16.432C5.44758 19.0766 6.75738 21.6915 8.00764 24.336C9.9128 28.3177 11.818 32.3292 13.6338 36.3406C14.5864 38.48 15.3901 40.6789 16.2534 42.848Z" fill="#E40A7F"></path>
<path d="M13.7231 50.2765C13.7526 50.2171 13.7822 50.1874 13.8117 50.1279C13.7822 50.1874 13.7526 50.2171 13.7231 50.2765Z" fill="#4BB7C9"></path>
<path d="M30.5121 0C30.5121 0.0297143 30.4826 0.0594286 30.4826 0.0594286C30.4826 0.0594286 30.4826 0.0297143 30.5121 0Z" fill="#E40A7F"></path>
<path d="M16.2534 42.8481C15.3901 40.679 14.5864 38.4504 13.6338 36.311C11.8179 32.2698 9.91278 28.2881 8.00761 24.3064C6.75735 21.6618 5.44755 19.047 4.16752 16.4024C4.10798 16.2835 4.07821 16.1944 4.01868 16.0458C4.4652 15.8675 4.85219 15.6893 5.29871 15.5407C8.93043 14.2035 12.5621 12.8367 16.1939 11.4995C20.4805 9.89497 24.7671 8.14183 28.8453 5.94297C28.8751 5.91326 28.9346 5.91326 28.9644 5.88354C29.3514 6.6264 29.7384 7.33955 30.1551 8.0824C32.0305 11.4104 33.9357 14.7681 35.8409 18.0961C37.6567 21.2161 39.4726 24.3361 41.3182 27.4561C41.3777 27.5453 41.4075 27.6344 41.467 27.7533C41.1694 27.9018 40.9014 28.0504 40.6335 28.199C33.5785 31.8241 26.702 35.8355 20.0935 40.263C18.7837 41.0653 17.5334 41.9864 16.2534 42.8481ZM24.3206 24.8115C24.4099 24.7224 24.4992 24.663 24.6183 24.5738C24.2015 24.2173 23.8145 23.8904 23.4573 23.5933C25.1541 21.3944 26.7913 19.2253 28.5179 16.9967C28.3393 16.9075 28.1904 16.8481 28.0416 16.759C27.9523 16.6995 27.8928 16.6401 27.8035 16.5807C27.1188 17.3533 26.4639 18.1258 25.7792 18.8984C24.6778 20.1761 23.5466 21.4241 22.4452 22.7018C21.7903 22.1967 21.1651 21.6618 20.5102 21.1567C20.153 20.8595 19.766 20.5624 19.4088 20.2653C19.2898 20.1761 19.1707 20.1167 19.1409 20.3544C18.9028 20.2653 18.8432 20.4733 18.7242 20.6218C19.7065 21.6321 20.6591 22.6424 21.6414 23.6527C21.2247 24.1578 20.8079 24.6035 20.3614 25.1384C20.6889 25.3761 21.0163 25.6138 21.3438 25.8218C21.6712 26.0298 21.6712 26.0298 21.8796 25.7327C22.0284 25.5544 22.1475 25.3761 22.2963 25.1978C22.4154 25.0493 22.5643 24.9304 22.7131 24.7818C23.0108 25.079 23.3382 25.3761 23.6359 25.6733C23.6954 25.6435 23.755 25.5544 23.8443 25.495C24.0527 25.495 24.0824 25.3761 24.0824 25.2275C24.1122 25.1978 24.1122 25.1681 24.142 25.1384C24.2908 25.1087 24.3206 24.9601 24.3206 24.8115Z" fill="#FDFDFD"></path>
<path d="M24.1122 25.1086C24.0824 25.1383 24.0824 25.1681 24.0527 25.1978C23.9634 25.2869 23.9038 25.376 23.8145 25.4652C23.7252 25.5246 23.6657 25.6138 23.6061 25.6435C23.2787 25.3463 22.981 25.0492 22.6833 24.7521C22.594 24.6332 22.5047 24.5143 22.3857 24.3658C21.9987 24.9006 21.6414 25.3463 21.314 25.7921C20.9865 25.5543 20.6889 25.3463 20.3316 25.1086C20.7782 24.6035 21.1949 24.128 21.6117 23.6229C20.6293 22.6126 19.6767 21.6023 18.6944 20.592C18.8135 20.4435 18.873 20.2355 19.1112 20.3246C19.5874 20.7406 20.0637 21.1269 20.54 21.5429C21.1056 21.9886 21.6414 22.464 22.2368 22.9098C22.3261 22.8206 22.3559 22.7315 22.4154 22.672C23.5168 21.3943 24.648 20.1463 25.7495 18.8686C26.4341 18.096 27.089 17.3235 27.7737 16.5509C27.863 16.6103 27.9523 16.6698 28.0118 16.7292C27.9821 16.8183 27.9821 16.9669 27.9225 17.0263C26.7913 18.6012 25.6006 20.1463 24.4397 21.6618C23.9634 22.2858 23.4871 22.9098 23.0108 23.5635C23.4275 23.8903 23.7848 24.2172 24.1717 24.544C24.261 24.6035 24.2908 24.7223 24.3504 24.8115C24.2313 24.9006 24.1717 24.9898 24.1122 25.1086Z" fill="#747473"></path>
<path d="M24.3206 24.8115C24.2611 24.7223 24.2313 24.6035 24.142 24.5441C23.755 24.2172 23.3978 23.8903 22.981 23.5635C23.4871 22.9098 23.9336 22.2858 24.4099 21.6618C25.6006 20.1463 26.7913 18.6012 27.9523 17.0561C28.0118 16.9669 28.0118 16.8481 28.0416 16.7589C28.1905 16.8183 28.3393 16.9075 28.5179 16.9966C26.7913 19.2252 25.1541 21.3943 23.4573 23.5932C23.8145 23.9201 24.2015 24.2172 24.6183 24.5738C24.4992 24.6629 24.4099 24.7521 24.3206 24.8115Z" fill="#D7D7D7"></path>
<path d="M22.4154 22.7017C22.3559 22.7611 22.2963 22.8503 22.2368 22.9394C21.6712 22.464 21.1056 22.0183 20.54 21.5726C20.0637 21.1863 19.5874 20.7703 19.1111 20.3543C19.1409 20.1463 19.26 20.176 19.3791 20.2651C19.7363 20.5623 20.1233 20.8594 20.4805 21.1566C21.1056 21.6617 21.7605 22.1669 22.4154 22.7017Z" fill="#D7D7D7"></path>
<path d="M21.314 25.7919C21.6415 25.3462 21.9987 24.9005 22.3857 24.3656C22.5048 24.5142 22.5941 24.633 22.6834 24.7519C22.5345 24.9005 22.3857 25.0193 22.2666 25.1679C22.1178 25.3462 21.9987 25.5245 21.8499 25.7027C21.6117 25.9999 21.6117 25.9999 21.314 25.7919Z" fill="#D7D7D7"></path>
<path d="M23.8145 25.4653C23.9038 25.3762 23.9634 25.287 24.0527 25.1979C24.0527 25.3167 23.9931 25.4653 23.8145 25.4653Z" fill="#D7D7D7"></path>
<path d="M24.1122 25.1085C24.1718 25.0194 24.2611 24.9302 24.3206 24.8411C24.3206 24.9599 24.2909 25.1085 24.1122 25.1085Z" fill="#D7D7D7"></path>
<path d="M56.1715 20.6515H53.403V12.7772H56.1715V15.5704C56.9157 15.1841 57.511 14.7681 57.9278 14.2927C58.285 13.9064 58.4636 13.5498 58.4636 13.2527C58.4636 12.8961 58.3148 12.6881 57.9873 12.5395C57.8087 12.4801 57.511 12.4504 57.0943 12.4504H52.8672L53.5221 10.0732H57.8385C59.059 10.0732 59.952 10.3704 60.5474 10.9647C61.0534 11.4698 61.2916 12.1235 61.2916 12.9555C61.2916 13.8767 60.9344 14.7681 60.2199 15.6001C59.3567 16.6104 58.0171 17.5018 56.1715 18.2744V20.6515Z" fill="white"></path>
<path d="M65.3103 10.0732H68.0787V13.6687L71.1746 10.0732H73.824V20.6515H71.0556V13.9658L68.1085 17.5315V20.6515H65.3401V10.0732H65.3103Z" fill="white"></path>
<path d="M85.9694 12.4504H83.0224V20.6515H80.2539V12.4504H77.3069L77.9618 10.0732H85.3443L85.9694 12.4504Z" fill="white"></path>
<path d="M99.246 20.6515H96.4478V14.263L94.2748 17.1155L92.191 14.263L92.1612 20.6515H89.3928V10.0732H92.0124L94.2748 13.1932L96.5967 10.0732H99.2163V20.6515H99.246Z" fill="white"></path>
<path d="M103.354 14.0549C103.354 12.7772 103.681 11.7966 104.366 11.0834C105.17 10.2514 106.42 9.83545 108.176 9.83545C109.903 9.83545 111.183 10.2514 111.987 11.0834C112.671 11.7966 112.999 12.7772 112.999 14.0549C112.999 15.6892 112.612 17.1749 111.808 18.512C110.885 20.0869 109.665 20.8892 108.176 20.8892C106.688 20.8892 105.468 20.1166 104.545 18.5417C103.771 17.1749 103.354 15.6892 103.354 14.0549ZM110.111 14.1737C110.111 13.4903 109.963 13.0149 109.665 12.7177C109.367 12.4503 108.861 12.3017 108.176 12.3017C107.492 12.3017 106.986 12.4503 106.688 12.7177C106.39 12.9852 106.242 13.4606 106.242 14.1737C106.242 15.184 106.45 16.1349 106.837 17.0263C107.224 17.9177 107.67 18.3932 108.176 18.3932C108.682 18.3932 109.129 17.9474 109.516 17.0263C109.933 16.1349 110.111 15.184 110.111 14.1737Z" fill="white"></path>
<path d="M53.403 32.6559V24.8114H56.1715V30.3085H57.7789C58.1362 30.3085 58.4041 30.2788 58.5529 30.2194C58.8506 30.1302 58.9697 29.9519 58.9697 29.6548C58.9697 29.2091 58.6422 28.6742 57.9575 28.1394C57.4813 27.7531 56.9157 27.3965 56.3203 27.1291L57.1836 26.4754C57.5706 26.2079 57.8385 25.9999 57.9873 25.8514C58.3445 25.5245 58.4934 25.2571 58.4934 25.0194C58.4934 24.7817 58.4041 24.6628 58.2255 24.6034C58.0469 24.5439 57.7194 24.5142 57.1836 24.5142H52.8672L53.5221 22.1371H58.5231C59.6543 22.1371 60.4878 22.4045 60.9939 22.9097C61.4107 23.3257 61.619 23.8902 61.619 24.5737C61.619 25.0491 61.4702 25.4948 61.2023 25.9108C60.9939 26.2079 60.6665 26.5645 60.2199 26.9508C60.7855 27.3668 61.232 27.8125 61.5297 28.2879C61.8869 28.8525 62.0656 29.4468 62.0656 30.1005C62.0656 30.8137 61.8274 31.4079 61.3511 31.8537C60.7558 32.4182 59.7734 32.6857 58.4636 32.6857H53.403V32.6559Z" fill="white"></path>
<path d="M69.2695 32.6559H66.501V24.8113H69.2695V27.6044C70.0137 27.2182 70.609 26.8022 71.0258 26.3267C71.383 25.9404 71.5616 25.5839 71.5616 25.2867C71.5616 24.9302 71.4128 24.7222 71.0853 24.5736C70.9067 24.5142 70.609 24.4844 70.1923 24.4844H65.9652L66.6201 22.1073H70.9365C72.157 22.1073 73.05 22.4044 73.6454 22.9987C74.1515 23.5039 74.3896 24.1576 74.3896 24.9896C74.3896 25.9107 74.0324 26.8022 73.318 27.6342C72.4547 28.6444 71.1151 29.5359 69.2695 30.3084V32.6559Z" fill="white"></path>
<path d="M85.5824 24.4844H81.3256V26.0593H85.1954L84.5405 28.4364H81.3256V30.3084H85.8801L85.2252 32.6856H78.5571V22.1073H84.9573L85.5824 24.4844Z" fill="white"></path>
<path d="M99.6627 32.6559H96.8943V26.2673L94.7212 29.1199L92.6375 26.2673L92.6077 32.6559H89.8392V22.1073H92.4588L94.7212 25.2273L97.0431 22.1073H99.6627V32.6559Z" fill="white"></path>
<path d="M112.344 22.1074L112.999 24.4845H108.504C108.057 24.4845 107.79 24.5142 107.67 24.5439C107.343 24.6331 107.164 24.8411 107.164 25.1382C107.164 25.6433 107.611 26.2079 108.504 26.8914C108.861 27.1588 109.248 27.4262 109.605 27.6936C109.04 29.0011 108.444 30.1599 107.819 31.1405C107.135 32.2696 106.361 33.3096 105.527 34.2605L103.205 32.6559C103.801 31.9428 104.366 31.2296 104.902 30.4571C105.438 29.6845 105.884 28.9119 106.271 28.1393C105.557 27.6936 105.021 27.2479 104.664 26.7725C104.217 26.1782 103.979 25.5245 103.979 24.8114C103.979 24.0982 104.188 23.4742 104.634 22.9988C105.2 22.3748 106.033 22.0776 107.194 22.0776H112.344V22.1074ZM109.695 24.8114H112.463V32.6856H109.695V24.8114Z" fill="white"></path>
<path opacity="0.25" d="M22.5345 45.6114C21.4629 46.4434 20.421 47.3349 19.3791 48.2263C18.1288 49.2663 16.8786 50.336 15.6283 51.4057C15.4199 51.584 15.2413 51.7623 14.9734 52C14.8841 51.0789 14.7948 50.2469 14.7055 49.4149C15.3306 48.8503 15.926 48.256 16.5511 47.6914C17.4144 46.9486 18.3075 46.2057 19.2005 45.4629C20.2424 44.6309 21.2545 43.7989 22.3262 42.9669C24.6183 41.184 26.9998 39.4903 29.4705 37.9451C31.5245 36.6674 33.6083 35.4491 35.6921 34.2606C37.0019 33.5177 38.3712 32.8046 39.7405 32.1806C41.5564 31.3486 43.3723 30.5463 45.2179 29.744C45.3072 29.7143 45.3965 29.7143 45.4858 29.6846C45.9323 30.2491 46.3491 30.8434 46.8254 31.4377C46.3193 31.616 45.8728 31.7943 45.4263 31.9726C43.6104 32.7451 41.7648 33.488 39.9489 34.2903C37.6865 35.3006 35.5432 36.4891 33.4595 37.7669C31.3757 39.0149 29.3812 40.352 27.4463 41.808" fill="#0A274A"></path>
</g>
<defs>
<clipPath id="clip0">
<rect width="113" height="52" fill="white"></rect>
</clipPath>
</defs>
</svg>